<svg xmlns="http://www.w3.org/2000/svg" width="99" height="99" viewBox="0 0 1000 1000">
    <g>
        <path fill="#4267B2" d="M926.802,90.91H181.818c-2.243,0-4.291,0.844-6.395,1.477l-18.311-60.172 C151.289,13.078,133.639,0,113.636,0H22.728C10.176,0,0,10.176,0,22.728v45.454C0,80.734,10.176,90.91,22.728,90.91h57.241 L221.97,557.551l-53.034,61.873c-20.962,24.454-30.4,58.148-20.753,88.877c12.339,39.301,47.024,64.426,87.015,64.426h651.166 c12.553,0,22.729-10.177,22.729-22.729v-45.453c0-12.553-10.176-22.729-22.729-22.729H235.196l72.045-84.051 c1.811-2.114,3.143-4.5,4.517-6.859h440.419c35.227,0,67.282-20.344,82.282-52.216L993.054,201.68 c4.549-9.699,6.946-20.463,6.946-31.14v-6.437C1000,123.682,967.228,90.91,926.802,90.91z"/>
        <circle fill="#4267B2" cx="272.728" cy="909.092" r="90.91"/>
        <circle fill="#4267B2" cx="818.182" cy="909.092" r="90.91"/>
        <path fill="#FFFFFF" d="M600.2,219.243h33.471v-58.295c-5.773-0.795-25.634-2.582-48.764-2.582 c-48.258,0-81.317,30.354-81.317,86.146v51.345h-53.254v65.17h53.254v163.981h65.295V361.042h51.1l8.111-65.17h-59.227v-44.898 C568.885,232.136,573.956,219.243,600.2,219.243L600.2,219.243z"/>
    </g>
    <g>
        <path fill="#FF0000" d="M699.498,504.356h290.055c5.764,0,10.447,4.673,10.447,10.447V619.28c0,5.764-4.684,10.446-10.447,10.446 H699.498c-5.764,0-10.447-4.683-10.447-10.446V514.804C689.051,509.029,693.735,504.356,699.498,504.356z"/>
        <g>
            <path fill="#FFFFFF" d="M735.883,532.863h34.994c8.631,0,15.529,2.508,20.68,7.527c4.664,4.531,7.021,10.03,7.021,16.497 c0,6.48-2.307,11.948-6.889,16.396c-5.162,5.021-12.098,7.529-20.793,7.529h-12.854v20.264h-22.141v-68.214H735.883z M758.022,549.472v14.732h9.201c2.574,0,4.592-0.724,6.043-2.192c1.469-1.459,2.201-3.173,2.201-5.124 c0-2.081-0.691-3.843-2.08-5.272c-1.408-1.43-3.447-2.144-6.164-2.144H758.022z"/>
            <path fill="#FFFFFF" d="M872.211,601.077h-23.914l-11.08-22.141h-7.43v22.141H807.75v-68.214h34.994 c9.121,0,16.344,2.335,21.631,6.999c4.734,4.162,7.104,9.222,7.104,15.14c0,4.386-1.412,8.479-4.217,12.273 c-2.826,3.785-6.721,6.438-11.65,7.979L872.211,601.077z M829.787,549.472v12.856h9.307c2.57,0,4.59-0.655,6.061-1.93 c1.469-1.275,2.203-2.784,2.203-4.521c0-1.642-0.734-3.141-2.203-4.447c-1.471-1.306-3.49-1.97-6.061-1.97h-9.307V549.472z"/>
            <path fill="#FFFFFF" d="M953.18,566.091c0,12.744-3.838,22.335-11.488,28.732c-6.488,5.438-14.916,8.142-25.283,8.142 c-10.527,0-18.996-2.683-25.404-8.049c-7.652-6.408-11.498-16.021-11.498-28.834c0-12.038,3.785-21.119,11.387-27.18 c6.488-5.224,14.988-7.835,25.496-7.835c10.447,0,18.885,2.59,25.291,7.732C949.342,544.943,953.18,554.044,953.18,566.091z M916.408,586.345c4.307,0,7.592-1.969,9.814-5.949c2.012-3.549,3.021-8.314,3.021-14.305c0-5.162-0.969-9.354-2.92-12.639 c-2.305-3.837-5.609-5.755-9.916-5.755c-4.324,0-7.631,1.918-9.938,5.755c-2.02,3.337-3.02,7.549-3.02,12.639 c0,6.061,0.979,10.827,2.92,14.305C908.594,584.376,911.942,586.345,916.408,586.345z"/>
        </g>
    </g>
</svg>
