<svg xmlns="http://www.w3.org/2000/svg" width="99" height="99" viewBox="0 0 1000 1000">
	<path d="M895.985,0h-791c-58,0-105,47-105,105v789c0,59,47,106,105,106h790c57,0,105-47,105-105V105 C1000.985,47,953.985,0,895.985,0z"/>
	<g>
		<g fill="#FFFFFF">
			<path d="M767.488,236.284H287.242c-1.446,0-2.767,0.544-4.123,0.952l-11.804-38.789 c-3.754-12.335-15.131-20.766-28.026-20.766h-58.603c-8.091,0-14.651,6.56-14.651,14.651v29.301 c0,8.092,6.56,14.651,14.651,14.651h36.9l91.539,300.814l-34.188,39.886c-13.513,15.764-19.597,37.484-13.377,57.294 c7.954,25.334,30.313,41.531,56.093,41.531h419.767c8.092,0,14.652-6.562,14.652-14.652v-29.301 c0-8.092-6.561-14.651-14.652-14.651H321.651l46.443-54.183c1.167-1.363,2.026-2.9,2.912-4.422h283.912 c22.707,0,43.371-13.114,53.043-33.66l102.234-217.25c2.934-6.252,4.479-13.191,4.479-20.073v-4.149 C814.673,257.41,793.548,236.284,767.488,236.284z"/>
			<circle cx="345.846" cy="763.715" r="58.604"/>
			<circle cx="697.466" cy="763.715" r="58.604"/>
		</g>
		<path d="M549.294,319.012h21.576v-37.579c-3.723-0.513-16.525-1.665-31.436-1.665 c-31.108,0-52.42,19.567-52.42,55.533V368.4h-34.33v42.011h34.33V516.12h42.092V410.421h32.941l5.229-42.011h-38.18v-28.943 C529.107,327.324,532.376,319.012,549.294,319.012L549.294,319.012z"/>
	</g>
	<g>
		<path d="M715.922,777.171H990.11c5.418,0,9.891,4.393,9.891,9.876v98.739c0,5.451-4.473,9.891-9.891,9.891H715.922 c-5.484,0-9.891-4.439-9.891-9.891v-98.739C706.031,781.563,710.438,777.171,715.922,777.171z"/>
		<g fill="#FFFFFF">
			<path d="M750.303,804.092H783.4c8.154,0,14.65,2.365,19.537,7.125c4.439,4.31,6.645,9.487,6.645,15.6 c0,6.144-2.205,11.288-6.514,15.502c-4.891,4.761-11.451,7.126-19.668,7.126h-12.144v19.167h-20.92v-64.52H750.303z M771.256,819.819v13.926h8.669c2.43,0,4.326-0.69,5.709-2.074c1.383-1.382,2.106-3.021,2.106-4.854 c0-1.979-0.659-3.619-1.977-4.984c-1.32-1.352-3.282-2.013-5.839-2.013H771.256z"/>
			<path d="M879.195,868.611h-22.624l-10.454-20.969h-7.026v20.969h-20.812v-64.52h33.034 c8.635,0,15.47,2.204,20.487,6.626c4.469,3.956,6.706,8.717,6.706,14.33c0,4.132-1.354,8.007-4.006,11.594 c-2.671,3.57-6.336,6.063-11.001,7.543L879.195,868.611z M839.09,819.819v12.157h8.813c2.428,0,4.324-0.625,5.707-1.849 c1.386-1.204,2.106-2.619,2.106-4.262c0-1.542-0.721-2.958-2.106-4.212c-1.383-1.238-3.279-1.864-5.707-1.864h-8.813V819.819z"/>
			<path d="M955.729,835.518c0,12.059-3.604,21.113-10.855,27.161c-6.143,5.146-14.087,7.719-23.914,7.719 c-9.953,0-17.963-2.573-24.011-7.623c-7.219-6.078-10.901-15.132-10.901-27.257c0-11.387,3.617-19.991,10.807-25.716 c6.143-4.921,14.152-7.381,24.075-7.381c9.921,0,17.864,2.428,23.895,7.286C952.125,815.526,955.729,824.131,955.729,835.518z M920.959,854.67c4.101,0,7.19-1.849,9.297-5.629c1.896-3.346,2.846-7.879,2.846-13.523c0-4.891-0.918-8.831-2.784-11.949 c-2.168-3.65-5.258-5.453-9.358-5.453c-4.068,0-7.188,1.803-9.39,5.453c-1.914,3.15-2.864,7.156-2.864,11.949 c0,5.739,0.918,10.243,2.767,13.523C913.579,852.821,916.73,854.67,920.959,854.67z"/>
		</g>
	</g>
</svg>
